<?xml version="1.0" encoding="utf-8"?>
<!-- Generator: Adobe Illustrator 13.0.2, SVG Export Plug-In . SVG Version: 6.00 Build 14948)  -->
<!DOCTYPE svg PUBLIC "-//W3C//DTD SVG 1.0//EN" "http://www.w3.org/TR/2001/REC-SVG-20010904/DTD/svg10.dtd">
<svg version="1.0" id="Layer_2" xmlns="http://www.w3.org/2000/svg" xmlns:xlink="http://www.w3.org/1999/xlink" x="0px" y="0px"
	 width="389px" height="600px" viewBox="0 0 389 600" enable-background="new 0 0 389 600" xml:space="preserve">
<pattern />
<path fill="#93CFC9" d="M333.889,402.535c-3.984-10.248-13.896-34.126-20.925-52.938c-7.031-18.796-29.917-114.208-32.385-117.9
	c-0.208-0.311-0.405-0.586-0.608-0.88c-1.611-14.947-4.462-28.662-8.853-48.034c-9.319-41.088-23.065-79.588-90.928-78.71
	c-27.491,0.35-67.571,21.757-82.19,47.68c-14.617,25.927-25.606,46.497-23.125,82.874c0.161,2.35,0.264,4.647,0.323,6.902
	c-0.024,0.146-0.049,0.273-0.073,0.422c-12.755,79.391-13.578,94.238-20.888,112.926c-7.297,18.707-4.918,44.653-9.054,54.842
	c-4.14,10.172-8.902,29.91,1.765,40.188c10.657,10.267,17.492,12.448,27.427,6.995c9.922-5.459,13.732-37.448,13.732-37.448
	s15.845-2.459,17.394-12.819c0.146-0.988,0.161-1.938,0.071-2.848c10.628,42.219,0.999,106.699,31.688,119.048
	c-1.079,2.078-2.198,4.026-3.329,5.76c-4.709,7.211-18.936,3.137-21.854,27.276C110.428,569.515,132.759,569.202,142,568
	c30.437-3.951,45.202-13.792,36.361-44.606c-0.539-1.885-0.947-3.677-1.246-5.407c7.588-3.203,16.102-7.585,25.669-13.306
	c9.282-5.548,17.475-6.409,24.696-5.003c4.723,23.015,0.885,55.964,15.188,64.432c17.537,10.375,56.033-1.919,52.33-25.107
	c-3.043-19.044-13.564-10.177-23.753-20.775c-1.088-1.132-2.22-3.317-3.354-6.179c5.551-9.756,8.401-38.34,9.568-106.508
	c5.104,4.704,13.361,6.11,13.361,6.11s3.346,32.041,13.188,37.643c9.857,5.605,16.714,3.52,27.524-6.598
	C342.351,432.576,337.887,412.775,333.889,402.535z M94.357,390.232c0,0-9.437-13.357-2.002-25.531
	c4.081,12.08,8.295,23.79,10.782,30.893c0.507,1.448,0.98,2.938,1.423,4.456C101.752,393.764,94.357,390.232,94.357,390.232z
	 M285.006,382.34c0,0-3.622,1.663-6.799,4.785c0.848-9.29,2.449-20.674,4.13-33.086c0.201,1.493,0.397,2.847,0.59,4.023
	C285.434,373.611,285.006,382.34,285.006,382.34z"/>
<path fill="#231F20" d="M82.298,231.774c-0.641,2.045,14.963-2.811,38.778-4.741c12.059-0.977,17.854,0.281,28.218,6.557
	c5.349,3.236,11.387,11.607,16.144,13.824c8.758,4.089,13.249,0.146,22.061-0.171c17.312-0.627,25.66,4.443,43.015-1.457
	c16.164-5.491,35.987-13.189,47.449-26.668c10.35,19.15-36.664,33.967-38.001,63.845c-1.517,33.812-5.716,43.901-45.027,45.229
	c-23.394,0.789-34.636-0.983-40.515-20.786c-4.838-16.326-13.052-10.188-24.958-21.488c-11.108-10.548-11.341-25.779-20.394-35.514
	c-5.932-6.386-29.589-6.233-32.805-14.138c-0.75-1.845-3.754-6.891,1.66-4.125c25.83-2.313,49.596,5.303,74.821,0.681
	c12.069-2.212,21.288-5.909,32.44-9.731c15.369-5.269,19.973-4.247,34.082,2.854c4.348,2.188,26.822,9.347,23.604,18.088
	c-3.944,10.724-28.521-5.369-35.009-6.797c-13.314-2.922-28.969-0.189-41.753,3.661c-5.108,1.534-8.198,5.421-13.901,6.076"/>
<path fill="#393939" d="M286.227,153.726c-8.945-37.666-34.52-57.957-59.242-67.026c-27.694-10.42-54.596-8.908-61.55-8.391
	c-1.054,0.086-1.664,0.16-1.776,0.178c-38.417,3.724-63.783,27.033-78.834,48.542c-8.181,11.643-13.565,22.859-16.84,30.843
	c-10.623,1.874-23.95,8.443-27.686,29.046c-6.472,35.751,35.51,42.313,35.51,42.313l4.876-55.177
	c0.043-0.156,0.293-1.027,0.906-2.801c2.331-6.879,9.418-24.83,22.916-41.29c13.568-16.505,32.938-31.34,61.061-34.115
	c0.214-0.024,0.48-0.062,1.278-0.128c5.549-0.488,30.42-1.658,53.949,7.322c19.651,7.716,38.129,21.067,46.671,48.708
	c-0.109,0.005-0.179,0.011-0.179,0.011l10.925,71.033c0,0,35.875-2.151,33.65-38.411
	C310.659,164.854,297.818,156.91,286.227,153.726z"/>
<path fill="#FFFFFF" d="M177.193,198.934c0.004-0.086,0.029-0.166,0.029-0.251c0.18-6.239-4.752-11.442-10.987-11.609
	c-6.241-0.168-11.436,4.76-11.608,10.989c-0.04,1.467,0.222,2.867,0.692,4.166L177.193,198.934z"/>
<path fill="#FFFFFF" d="M243.809,206.498c1.642-1.904,2.7-4.332,2.771-7.042c0.18-6.244-4.745-11.44-10.984-11.604
	c-6.244-0.171-11.439,4.746-11.611,10.989c-0.027,1.062,0.136,2.074,0.385,3.054L243.809,206.498z"/>
</svg>
