<?xml version="1.0" encoding="utf-8"?>
<!-- Generator: Adobe Illustrator 13.0.2, SVG Export Plug-In . SVG Version: 6.00 Build 14948)  -->
<!DOCTYPE svg PUBLIC "-//W3C//DTD SVG 1.0//EN" "http://www.w3.org/TR/2001/REC-SVG-20010904/DTD/svg10.dtd">
<svg version="1.0" id="Layer_2" xmlns="http://www.w3.org/2000/svg" xmlns:xlink="http://www.w3.org/1999/xlink" x="0px" y="0px"
	 width="106.318px" height="150.818px" viewBox="0 0 106.318 150.818" enable-background="new 0 0 106.318 150.818"
	 xml:space="preserve">
<path fill="#393939" d="M86.84,34.581c0,0-2.8,5.905-2.052,12.817c1.427,13.163,7.056,17.128,7.056,17.128
	s18.721-4.664,15.75-18.289C104.622,32.614,86.84,34.581,86.84,34.581z"/>
<path fill="#93CFC9" d="M96.289,87.888c-0.168-6.357-1.979-19.157-2.627-23.57c-0.953-8.731-2.703-17.65-4.52-22.979
	c-3.266-9.596-11.594-21.948-18.781-24.91c-6.941-2.857-12.046-4.287-18.578-2.449c-4.671,1.314-17.354,6.329-24.906,16.334
	c-7.438,9.851-13.681,28-15.623,39.47c-0.234,0.963-0.484,1.898-0.771,2.766c-1.991,6.025-6.153,24.816-7.049,34.582
	C2.536,116.9,3.25,120.822,9.01,120.519c5.762-0.303,4.967-2.8,6.992-9.438c0.143-0.467,0.273-0.979,0.398-1.518
	c1.734,2.521,3.564,4.625,5.165,6.092c3.263,2.99-1.095,5.332-1.521,10.24c-0.428,4.909-1.707,7.471-0.641,12.592
	s5.549,10.457,11.736,11.523c6.188,1.066,12.166-3.629,11.736-7.684c-0.427-4.055-3.414-7.256-3.625-10.67
	c-0.216-3.414,2.116-9.877,2.116-9.877s7.351,2.449,13.271,1.838c5.92-0.613,7.351-0.613,7.351-0.613s2.36,0.809,2.146,3.582
	c-0.211,2.771-2.347,7.684-3.199,9.389c-0.854,1.709-2.987,6.403-1.707,8.537c1.279,2.135,3.414,4.055,9.39,3.201
	c5.974-0.854,9.603-4.27,10.243-6.402c0.641-2.134-0.641-5.549-1.068-8.322c-0.426-2.774-2.298-7.518-0.084-10.596
	c0,0,1.51-1.756,3.41-4.302c0.156,6.497,1.748,9.097,7.002,8.589c6.329-0.611,5.309-3.062,7.146-9.801S96.493,95.648,96.289,87.888z
	"/>
<circle fill="#FFFFFF" cx="57.904" cy="70.169" r="3.61"/>
<circle fill="#FFFFFF" cx="80.209" cy="69.826" r="3.611"/>
<path fill="none" d="M59.854,34.304c-9.791,0.06-17.616,4.126-26.027,9c-7.458,4.322-16.139,8.217-20.409,15.489
	c8.747-10.284,14.77-23.082,24.934-32.499c9.312-8.626,20.96-10.99,33.504-10.99"/>
<path fill="#231F20" d="M82.854,32.804c-3.22,5.419-16.966,21.066-22.833,22.834c0.57-3.699,2.9-7.016,2.667-11
	c-4.763,6.002-5.002,7.83-10.443,13.678c-4.091,4.396-8.78,7.996-11.915,13.312c0.648-5.025,0.234-11.46,2.975-15.759
	c-6.172,2.024-12.555,2.718-18.282,6.437c-3.203,2.079-5.81,5.356-8.142,10.355c-1.473,3.153-2,7.667-5,10.334
	c0.26-6.817-2.955-15.261-1.414-22.192c2.051-9.234,4.347-19.002,7.513-27.925c2.817-7.945,8.116-11.865,15.376-15.21
	c5.342-2.462,10.501-3.53,16.072-4.891c-0.238-0.806-0.571-1.973-2.071-3.14c6.333,0.417,6.258,1.434,11.333,3.334
	c0.417-1.084,0.083-2.501-0.5-3.834c6.833,0,16.242,9.112,20.167,13.834c1.595,1.919,4.478,4.883,5.333,7.334
	c1.523,4.362,0.047,3.595-4.334,5.999"/>
<path fill="#393939" d="M20.176,38.584c0,0,2.629,5.856,1.737,12.662c-1.698,12.965-7.341,16.817-7.341,16.817
	S-3.781,63.259-0.547,49.855C2.685,36.45,20.176,38.584,20.176,38.584z"/>
<g>
	<path fill="#393939" d="M10.224,48.056c0.031-0.211,1.033-11.504,6.979-23.252l0,0C23.056,13.095,34.474,0.659,54.408-0.004l0,0
		c0.044-0.002,0.219-0.008,0.51-0.008l0,0c2.106,0.01,10.61,0.31,19.493,5.616l0,0c8.897,5.279,17.894,15.82,20.44,34.988l0,0
		l-5.947,0.806c-2.445-17.67-10.143-26.133-17.578-30.647l0,0c-7.455-4.488-14.934-4.773-16.408-4.763l0,0
		c-0.195,0-0.236,0.002-0.266,0.004l0,0c-16.303,0.632-25.396,9.651-31.039,19.546l0,0c-5.564,9.868-7.118,20.453-7.368,22.651l0,0
		C16.211,48.483,16.2,48.6,16.2,48.6l0,0L10.224,48.056L10.224,48.056z"/>
</g>
<path fill="#231F20" d="M78.854,36.304c4.167,4.001,5.167,6.001,7.998,10.525c2.245,3.59,3.349,7.811,4.026,12.166
	c6-12-5.277-28.59-9.332-32"/>
<rect x="48.211" y="63.657" transform="matrix(-0.974 0.2264 -0.2264 -0.974 126.1278 119.5158)" fill="#93CFC9" width="15.999" height="6.667"/>
<rect x="74.216" y="63.66" transform="matrix(-0.9428 -0.3334 0.3334 -0.9428 137.393 157.5655)" fill="#93CFC9" width="16.001" height="6.667"/>
</svg>
