<?xml version="1.0" encoding="utf-8"?>
<!-- Generator: Adobe Illustrator 13.0.2, SVG Export Plug-In . SVG Version: 6.00 Build 14948)  -->
<!DOCTYPE svg PUBLIC "-//W3C//DTD SVG 1.0//EN" "http://www.w3.org/TR/2001/REC-SVG-20010904/DTD/svg10.dtd">
<svg version="1.0" id="Layer_1" xmlns="http://www.w3.org/2000/svg" xmlns:xlink="http://www.w3.org/1999/xlink" x="0px" y="0px"
	 width="106.318px" height="150.818px" viewBox="0 0 106.318 150.818" enable-background="new 0 0 106.318 150.818"
	 xml:space="preserve">
<g>
	<path fill="#393939" d="M86.623,35.521c0,0-2.615,5.519-1.916,11.979C86.039,59.801,91.3,63.506,91.3,63.506
		s17.494-4.357,14.72-17.092C103.242,33.681,86.623,35.521,86.623,35.521z"/>
</g>
<path fill="#93CFC9" d="M96.25,87.9c-0.168-6.358-1.979-19.157-2.627-23.57c-0.954-8.73-2.704-17.649-4.519-22.979
	c-3.268-9.597-11.596-21.948-18.782-24.91c-6.941-2.857-12.046-4.287-18.578-2.449c-4.671,1.314-17.353,6.329-24.907,16.334
	c-7.438,9.851-13.68,28-15.623,39.47c-0.233,0.963-0.483,1.898-0.771,2.767c-1.991,6.024-6.153,24.815-7.049,34.582
	c-0.897,9.767-0.185,13.688,5.576,13.387c5.762-0.303,4.967-2.8,6.992-9.438c0.143-0.466,0.273-0.979,0.398-1.517
	c1.734,2.521,3.564,4.625,5.165,6.092c3.263,2.989,1.008,5.975,0.581,10.882c-0.427,4.91-1.706,7.472-0.641,12.593
	c1.066,5.122,5.55,10.457,11.737,11.523c6.188,1.066,12.165-3.629,11.736-7.683c-0.427-4.055-3.414-7.256-3.626-10.671
	c-0.215-3.414,0.016-10.521,0.016-10.521s7.351,2.45,13.271,1.838c5.921-0.612,7.351-0.612,7.351-0.612s0.488,2.68,0.274,5.454
	c-0.212,2.771-2.348,7.683-3.2,9.389c-0.854,1.709-2.987,6.403-1.707,8.537s3.414,4.054,9.39,3.201
	c5.975-0.854,9.604-4.27,10.243-6.402c0.64-2.134-0.641-5.549-1.068-8.323c-0.426-2.773-0.426-9.389,1.787-12.468
	c0,0,1.512-1.755,3.411-4.301c0.156,6.497,1.748,9.097,7.002,8.589c6.329-0.612,5.31-3.062,7.146-9.801S96.454,95.659,96.25,87.9z"
	/>
<circle fill="#FFFFFF" cx="57.865" cy="70.181" r="3.61"/>
<circle fill="#FFFFFF" cx="80.168" cy="69.837" r="3.611"/>
<path fill="none" d="M59.815,34.316c-9.791,0.06-17.616,4.126-26.027,9c-7.458,4.322-16.139,8.217-20.409,15.489
	c8.747-10.284,14.77-23.082,24.934-32.499c9.312-8.626,20.96-10.99,33.504-10.99"/>
<path fill="#231F20" d="M82.815,32.816c-3.219,5.419-16.966,21.065-22.833,22.834c0.571-3.699,2.9-7.017,2.667-11
	c-4.762,6.002-5.002,7.83-10.443,13.678c-4.091,4.396-8.78,7.996-11.915,13.312c0.648-5.025,0.234-11.46,2.976-15.76
	c-6.173,2.024-12.556,2.719-18.283,6.438c-3.203,2.079-5.81,5.355-8.143,10.354c-1.472,3.152-2,7.666-5,10.334
	c0.261-6.816-2.953-15.261-1.414-22.191c2.052-9.234,4.348-19.002,7.514-27.925c2.817-7.945,8.116-11.865,15.376-15.21
	c5.342-2.463,10.501-3.53,16.073-4.892c-0.239-0.806-0.572-1.973-2.072-3.14c6.333,0.417,6.258,1.434,11.333,3.334
	c0.417-1.084,0.083-2.501-0.5-3.834c6.833,0,16.243,9.112,20.167,13.834c1.595,1.919,4.478,4.883,5.333,7.334
	c1.523,4.362,0.047,3.595-4.334,5.999"/>
<g>
	<path fill="#393939" d="M20.234,39.173c0,0,2.521,5.615,1.667,12.142c-1.628,12.431-7.039,16.124-7.039,16.124
		S-2.734,62.832,0.366,49.98C3.465,37.129,20.234,39.173,20.234,39.173z"/>
</g>
<g>
	<path fill="#393939" d="M10.186,48.068c0.03-0.21,1.032-11.503,6.978-23.253l0,0C23.018,13.107,34.436,0.672,54.371,0.008l0,0
		C54.414,0.006,54.587,0,54.878,0l0,0C56.986,0.01,65.487,0.31,74.37,5.617l0,0c8.9,5.277,17.894,15.818,20.442,34.985l0,0
		l-5.948,0.806c-2.447-17.669-10.143-26.131-17.579-30.646l0,0c-7.453-4.486-14.934-4.771-16.407-4.764l0,0
		c-0.193,0-0.234,0.004-0.265,0.006l0,0C38.31,6.637,29.216,15.657,23.572,25.551l0,0c-5.564,9.867-7.117,20.451-7.367,22.649l0,0
		c-0.035,0.293-0.045,0.411-0.045,0.411l0,0L10.186,48.068L10.186,48.068z"/>
</g>
<path fill="#231F20" d="M78.815,36.316c4.167,4.001,5.167,6.001,7.998,10.524c2.246,3.591,3.349,7.812,4.026,12.166
	c6-12-5.277-28.59-9.333-32"/>
<rect x="48.505" y="62.336" transform="matrix(-0.974 0.2264 -0.2264 -0.974 126.4098 116.8404)" fill="#93CFC9" width="15.999" height="6.666"/>
<rect x="74.51" y="62.339" transform="matrix(-0.9428 -0.3334 0.3334 -0.9428 138.4057 155.0963)" fill="#93CFC9" width="16.001" height="6.667"/>
</svg>
