<?xml version="1.0" encoding="utf-8"?>
<!-- Generator: Adobe Illustrator 13.0.2, SVG Export Plug-In . SVG Version: 6.00 Build 14948)  -->
<!DOCTYPE svg PUBLIC "-//W3C//DTD SVG 1.0//EN" "http://www.w3.org/TR/2001/REC-SVG-20010904/DTD/svg10.dtd">
<svg version="1.0" id="Layer_1" xmlns="http://www.w3.org/2000/svg" xmlns:xlink="http://www.w3.org/1999/xlink" x="0px" y="0px"
	 width="389px" height="600px" viewBox="0 0 389 600" enable-background="new 0 0 389 600" xml:space="preserve">
<rect fill="#E1F4F1" width="389" height="598.288"/>
<g>
	<circle fill="#E5C467" cx="291.579" cy="120.772" r="57.112"/>
</g>
<g>
	<path fill="#E5C467" d="M214.137,118.673c0.004-38.483,31.193-69.666,69.67-69.671l0,0c38.47,0.005,69.659,31.188,69.663,69.671
		l0,0c-0.004,38.472-31.193,69.659-69.663,69.663l0,0C245.331,188.333,214.141,157.146,214.137,118.673L214.137,118.673z
		 M216.615,118.673c0.062,37.104,30.08,67.122,67.189,67.188l0,0c37.104-0.066,67.121-30.084,67.187-67.188l0,0
		c-0.062-37.115-30.078-67.128-67.187-67.196l0,0C246.695,51.545,216.677,81.558,216.615,118.673L216.615,118.673z"/>
</g>
<g>
	<path fill="#E5C467" d="M214.141,104.001c0-42.066,34.104-76.184,76.187-76.184l0,0c42.072,0,76.178,34.116,76.178,76.184l0,0
		h0.006c-0.006,42.081-34.114,76.187-76.184,76.187l0,0C248.243,180.188,214.141,146.085,214.141,104.001L214.141,104.001z
		 M216.615,104.001c0.072,40.711,32.996,73.638,73.71,73.71l0,0c40.702-0.071,73.636-32.999,73.706-73.71l0,0
		c-0.07-40.701-33.004-73.634-73.706-73.704l0,0C249.611,30.368,216.688,63.3,216.615,104.001L216.615,104.001z"/>
</g>
<rect y="500" fill="#4D4D4D" width="389" height="100"/>
<rect fill="none" width="389" height="600"/>
</svg>
