<?xml version="1.0" encoding="utf-8"?>
<!-- Generator: Adobe Illustrator 13.0.2, SVG Export Plug-In . SVG Version: 6.00 Build 14948)  -->
<!DOCTYPE svg PUBLIC "-//W3C//DTD SVG 1.0//EN" "http://www.w3.org/TR/2001/REC-SVG-20010904/DTD/svg10.dtd">
<svg version="1.0" id="Layer_1" xmlns="http://www.w3.org/2000/svg" xmlns:xlink="http://www.w3.org/1999/xlink" x="0px" y="0px"
	 width="389px" height="600px" viewBox="0 0 389 600" enable-background="new 0 0 389 600" xml:space="preserve">
<rect fill="#4D4D4D" width="389" height="600"/>
<rect y="498.553" fill="#383838" width="389" height="100"/>
<path fill="#E0CE99" d="M81.917,90.814c-10.377-15.693-9.744-35.467,0.04-50.22c-5.818,1.08-11.522,3.315-16.769,6.786
	C44.244,61.229,38.492,89.434,52.34,110.373c13.849,20.949,42.052,26.694,62.994,12.849c5.247-3.471,9.54-7.842,12.81-12.771
	C110.735,113.674,92.295,106.515,81.917,90.814z"/>
<polygon fill="#AAAAAA" points="222.42,44.833 224.334,48.71 228.611,49.333 225.516,52.35 226.247,56.613 222.42,54.6 
	218.591,56.613 219.324,52.35 216.229,49.333 220.506,48.71 "/>
<polygon fill="#AAAAAA" points="119.036,62.098 120.951,65.973 125.229,66.597 122.132,69.616 122.861,73.875 119.036,71.865 
	115.208,73.875 115.938,69.616 112.842,66.597 117.121,65.973 "/>
<polygon fill="#AAAAAA" points="170.161,105.64 172.348,110.069 177.236,110.78 173.7,114.23 174.534,119.101 170.161,116.801 
	165.785,119.101 166.621,114.23 163.082,110.78 167.972,110.069 "/>
</svg>
